{"title":"A.Million.Ways.To.Die.In.The.West.2014.AVI.BRRip.360p.DivX.NLsub","uid":10942056,"size":1307069825,"categoryP":"video","categoryS":"hd___movies","magnet":"?xt=urn:btih:c5b3fd6baa5369b7aa74f4e1cca71379ac18eac3&amp;dn=A.Million.Ways.To.Die.In.The.West.2014.AVI.BRRip.360p.DivX.NLsub&amp;tr=udp%3A%2F%2Ftracker.openbittorrent.com%3A80&amp;tr=udp%3A%2F%2Fopen.demonii.com%3A1337&amp;tr=udp%3A%2F%2Ftracker.coppersurfer.tk%3A6969&amp;tr=udp%3A%2F%2Fexodus.desync.com%3A6969","seeders":3,"leechers":0,"uploader":"HOLLANDmovies","files":-1,"time":1409551540,"description":"A MILLION WAYS TO DIE IN THE WEST 2014 (DivX 360p) \n\nINFO\n\nNL ondertiteld dankzij : Quantity over Quality release! Jongens Bedankt.\nHardcoded subtitle dutch.\n\nA Million Ways to Die in the West (2014)\n116 min - Comedy | Western\n\nAs a cowardly farmer begins to fall for the mysterious new woman in town, he must put his new-found courage to the test when her husband, a notorious gun-slinger, announces his arrival.\n\nDirector: Seth MacFarlane\nWriters: Seth MacFarlane, Alec Sulkin\nStars: Seth MacFarlane, Charlize Theron, Liam Neeson \n\n\nGENERAL:\n\nComplete name : A.Million.Ways.To.Die.In.The.West.2014.AVI.BRRip.360p.DivX.NLsub.{Th3Sp3cialist}.Movie.avi\nFormat : AVI\nFormat/Info : Audio Video Interleave\nFormat profile : OpenDML\nFile size : 1.22 GiB\nDuration : 1h 55mn\nOverall bit rate : 1 503 Kbps\n\nVideo\nID : 0\nSource : A.Million.Ways.To.Die.In.The.West.2014.AVI.BRRip.720p.DivX.NLsub.{Th3Sp3cialist}\nFormat : xvid\nCodec ID : xvid\nDuration : 1h 55mn\nBit rate : 1 167 Kbps\nWidth : 640 pixels\nHeight : 360 pixels\nDisplay aspect ratio : 16:9\nFrame rate : 23.976 fps\nBits/(Pixel*Frame) : 0.211\nStream size : 968 MiB (78%)\n\nAudio\nID : 1\nFormat : MPEG Audio\nFormat version : Version 1\nFormat profile : Layer 3\nMode : Joint stereo\nMode extension : MS Stereo\nCodec ID : 55\nCodec ID/Hint : MP3\nDuration : 1h 55mn\nBit rate mode : Constant\nBit rate : 320 Kbps\nChannel(s) : 2 channels\nSampling rate : 48.0 KHz\nCompression mode : Lossy\nStream size : 265 MiB (21%)\nAlignment : Aligned on interleaves\nInterleave, duration : 24 ms (0.58 video frame)\n &lt;a href=&quot;\nhttp://bayimg.com/OAacpAAgc&quot; rel=&quot;nofollow&quot; target=&quot;_NEW&quot;&gt;\nhttp://bayimg.com/OAacpAAgc&lt;/a&gt; &lt;a href=&quot;\nhttp://bayimg.com/pAAcAaaGc&quot; rel=&quot;nofollow&quot; target=&quot;_NEW&quot;&gt;\nhttp://bayimg.com/pAAcAaaGc&lt;/a&gt; &lt;a href=&quot;\nhttp://bayimg.com/pAAcBaaGc&quot; rel=&quot;nofollow&quot; target=&quot;_NEW&quot;&gt;\nhttp://bayimg.com/pAAcBaaGc&lt;/a&gt; &lt;a href=&quot;\nhttp://bayimg.com/paaCCaAgc&quot; rel=&quot;nofollow&quot; target=&quot;_NEW&quot;&gt;\nhttp://bayimg.com/paaCCaAgc&lt;/a&gt;","torrent":{"xt":"urn:btih:c5b3fd6baa5369b7aa74f4e1cca71379ac18eac3","amp;dn":"A.Million.Ways.To.Die.In.The.West.2014.AVI.BRRip.360p.DivX.NLsub","amp;tr":["udp%3A%2F%2Ftracker.openbittorrent.com%3A80","udp%3A%2F%2Fopen.demonii.com%3A1337","udp%3A%2F%2Ftracker.coppersurfer.tk%3A6969","udp%3A%2F%2Fexodus.desync.com%3A6969"],"infoHash":"c5b3fd6baa5369b7aa74f4e1cca71379ac18eac3","infoHashBuffer":{"type":"Buffer","data":[197,179,253,107,170,83,105,183,170,116,244,225,204,167,19,121,172,24,234,195]},"announce":[],"urlList":[]}}